PathFileType	4	(X/Y/Z)	4_coords_data.trc
DataRate	CameraRate	NumFrames	NumMarkers	Units	OrigDataRate	OrigDataStartFrame	OrigNumFrames
30.0	30.0	6	21	m	30.0	10	47
Frame#	Time	THUMB_TIP	THUMB_IP	THUMB_MCP	THUMB_CMC	INDEX_TIP	INDEX_DIP	INDEX_PIP	INDEX_MCP	MIDDLE_TIP	MIDDLE_DIP	MIDDLE_PIP	MIDDLE_MCP	RING_TIP	RING_DIP	RING_PIP	RING_MCP	PINKY_TIP	PINKY_DIP	PINKY_PIP	PINKY_MCP	WRIST
X1	Y1	Z1	X2	Y2	Z2	X3	Y3	Z3	X4	Y4	Z4	X5	Y5	Z5	X6	Y6	Z6	X7	Y7	Z7	X8	Y8	Z8	X9	Y9	Z9	X10	Y10	Z10	X11	Y11	Z11	X12	Y12	Z12	X13	Y13	Z13	X14	Y14	Z14	X15	Y15	Z15	X16	Y16	Z16	X17	Y17	Z17	X18	Y18	Z18	X19	Y19	Z19	X20	Y20	Z20	X21	Y21	Z21
8	0.2999999999999987	0.5415056092149622	-0.02034692592190379	-0.13657962234057025	0.5283037255353069	-0.011126815233227116	-0.12018755638787826	0.49946133398243187	-0.0042009109821765644	-0.11075525551185034	0.471143119322531	-0.01426794021732003	-0.07779128061720902	0.5502479390519398	0.038161842464352946	-0.16645788248083093	0.5392669394253939	0.03636279068754311	-0.15216868866500788	0.5244371206086824	0.034561614970106014	-0.13194884512213095	0.5030691170993721	0.037227036276775705	-0.09520731481535061	0.5056937855551128	-0.006530345841706753	-0.10344591283383064	0.5177003116976475	-0.0013909681721411271	-0.11599302912237291	0.534246027864407	0.02248930180607256	-0.1183128421098053	0.5173517319496325	0.031249184801959484	-0.07789013640567904	0.5180532211097074	-0.012010448322631984	-0.0973176653838741	0.5307888034400811	-0.007076815855430185	-0.1090847471540008	0.549572771367054	0.008106574669634048	-0.1030178550269028	0.529875624164487	0.016527739002895392	-0.06872751794263648	0.605483190461485	0.005665654043479407	-0.06745478903664676	0.5887126728530306	0.0022583841880317035	-0.06782929040737834	0.5678198556777719	0.0002507363053212419	-0.06835040408045101	0.5319818244344436	-0.0034708736759636594	-0.06671682312150456	0.4622830810018609	-0.023011742144276814	-0.051989820119430985
9	0.33333333333333187	0.5414223758918545	-0.02031423154769829	-0.13670269111811933	0.5282521705166727	-0.011115917652619434	-0.12027294030250651	0.4994249930550594	-0.004217836576455136	-0.11077397630303171	0.47110972650598926	-0.014255781573131676	-0.07779860154399659	0.5501721841505796	0.03815537419307613	-0.1665182635790266	0.5391958569775344	0.03638569913511347	-0.1522218132510781	0.524359721075356	0.03459101426284239	-0.13200602707538528	0.5029794933736649	0.0372422270747369	-0.09527058059586246	0.505612826521861	-0.0065758906725057464	-0.10345017907738102	0.5175898411830787	-0.001346373405125778	-0.11598825185413386	0.5341463459778732	0.022522613673389147	-0.11834688595581888	0.5172646654998796	0.03131981602062406	-0.07792701440603861	0.5180850731090211	-0.011941874268320163	-0.09730802766208069	0.5308072379000848	-0.0070803258272640335	-0.10911954195044721	0.549536124558786	0.008176555387061413	-0.10306674432145918	0.5298175298930209	0.016600670824350017	-0.06878946120995066	0.6054456761518912	0.005736562382196775	-0.06776015927245804	0.588675606871292	0.002321244838803027	-0.06807699109170767	0.5677836305810402	0.00029258667806852934	-0.06854804496808031	0.5319486116955096	-0.0033896270270958873	-0.06676586240078641	0.4622830810018609	-0.023011742144276814	-0.051989820119430985
10	0.3666666666666651	0.5413476195116826	-0.020367592343879748	-0.13685763265544332	0.5282259334009294	-0.011209408345113303	-0.1203667558001758	0.49939523427874266	-0.004374014000236182	-0.11083322695320796	0.4710804312392037	-0.014300691961394385	-0.0778237890075602	0.5501319167772937	0.03803260624366822	-0.16661992243812296	0.539159286549048	0.036301561654382475	-0.15231590655082422	0.5243214718515867	0.034537568206055136	-0.13209865117038105	0.5029491431353288	0.0371988819041571	-0.0953593388653784	0.5055146667567304	-0.006461229013302594	-0.10348833708198829	0.5175979076033482	-0.00142807757484964	-0.11600483328660666	0.5340989749113314	0.022474421053117144	-0.11841209044724749	0.5172360897471093	0.03131661543104802	-0.07799419065617536	0.5180836085294396	-0.012164744544040484	-0.09731545901929844	0.5307710419779825	-0.007124756168516377	-0.10908947913408412	0.5495501280279258	0.008099993826376606	-0.10311177943254035	0.5298091975969998	0.01658398582342724	-0.0688621315582143	0.6054361090175411	0.005706211861889132	-0.06808726382600355	0.5886676491485329	0.002277832151538206	-0.06834214847268366	0.5677766158867987	0.00022912933895491427	-0.06876589962941593	0.5319477617421186	-0.0034362505813199107	-0.06683156467411788	0.4622830810018609	-0.023011742144276814	-0.051989820119430985
11	0.39999999999999825	0.541321175611533	-0.020356393742845258	-0.13691232842252848	0.5282065810268428	-0.011225521184297538	-0.12040067874120403	0.4993655673861783	-0.004442325486059939	-0.11086106720307448	0.47104449780773916	-0.014314879037007122	-0.07784077489187768	0.5500637038317664	0.03792294348995917	-0.16673470324543416	0.53910104298473	0.0362342518225911	-0.15241798617742525	0.524269117191721	0.034504791643533705	-0.1321934273995501	0.5029051363816966	0.03716385794181165	-0.09544909743736024	0.5055384016561434	-0.006356630587382117	-0.10352969217064262	0.5176395730103044	-0.001505595463687337	-0.11610065514433371	0.5340422103600566	0.022468101186003953	-0.11847234376662436	0.5171929810651479	0.03133179932212926	-0.0780534589660854	0.5180799784319372	-0.012278052995413846	-0.09731441163428523	0.5307871560162669	-0.007197985106172311	-0.10904985146758522	0.5495649129479911	0.008051887975590422	-0.10313231865371586	0.5297872892722737	0.01659703934619594	-0.06891906356456745	0.6054049967558512	0.005804935565525193	-0.06842730186824197	0.5886403582581354	0.002353611449140036	-0.06861507269814376	0.567749309070365	0.000292303514378478	-0.06897157295374523	0.5319354442778145	-0.003442441796235096	-0.06689739430045466	0.4622830810018609	-0.023011742144277036	-0.051989820119430985
12	0.43333333333333146	0.5412708383228179	-0.02030477594514357	-0.13699130681488275	0.5281812116584036	-0.011236627257916076	-0.12042536726493286	0.4993499835092331	-0.004440670423518034	-0.11086528075300839	0.47102427824766746	-0.014367069167951163	-0.07786511364128856	0.5499803739991977	0.03778579379033009	-0.16684966754699626	0.5390293537882918	0.03613605095174466	-0.15251950687424498	0.5242080288890909	0.03444143803701927	-0.1322842295521628	0.5028645369806343	0.03713252505550446	-0.09553032502743791	0.5055671556619872	-0.006291464205869124	-0.10354706764905142	0.5176606820161449	-0.0015632948650301515	-0.11617208388688832	0.5340026120708361	0.022449744817227724	-0.11856473875249113	0.5171718229356712	0.0313125677101751	-0.07813797993539257	0.5180386985343859	-0.012559378597211346	-0.09736428394516972	0.5307673365182738	-0.007302328086727261	-0.10899807932781885	0.54955628472028	0.00796234263287876	-0.10315468713797465	0.5297570450663099	0.016621362475424784	-0.06898258859997058	0.6053761079382389	0.0058747627908462	-0.06880665669440278	0.5886163076721895	0.0023967119911572077	-0.0689173710878292	0.5677245120696324	0.00033153032086219447	-0.0692000726436256	0.5319267388941054	-0.003467731645018013	-0.06697106048840218	0.4622830810018609	-0.023011742144277036	-0.051989820119430985
13	0.4666666666666647	0.5412336934558972	-0.020326332949185177	-0.1370803622523759	0.5281721450640512	-0.011305608805928458	-0.12046643768475113	0.4993626756995058	-0.004482304287620087	-0.11086034636810427	0.47101010412749805	-0.014392737385375831	-0.077878457382343	0.5499233043925815	0.037582481538659174	-0.1669395655458591	0.5389796156647759	0.035977502542603346	-0.1525987245854717	0.5241669458039372	0.03433626877921503	-0.1323527127231885	0.5028501450760077	0.03709993356226449	-0.09558870508402217	0.5055457616238179	-0.006438308586342201	-0.10356483564480878	0.5176531251298182	-0.0016450452776533009	-0.11615198686290218	0.5339710319948838	0.02237342793945951	-0.11865166881504613	0.5171712591871722	0.03127349031215687	-0.07822019043035966	0.5180005525453985	-0.012668754976917773	-0.09738974681757717	0.5307615797018053	-0.007412310425313429	-0.10898828019854223	0.5495756942375076	0.007843563132657216	-0.10320317905675669	0.5297523138029934	0.01659267539958309	-0.06906804383380422	0.6053650136750818	0.005824544476883409	-0.06912269428464707	0.5886044653768602	0.0023486427535648335	-0.0691688240235529	0.5677105966745528	0.0002968164525858352	-0.06938854767123204	0.531919572055692	-0.00348913866791567	-0.06703216239762932	0.4622830810018609	-0.023011742144277036	-0.051989820119430985
